<svg width="100" height="100" viewBox="0 0 100 100" fill="none" xmlns="http://www.w3.org/2000/svg">
<path d="M41.2258 60.2538C44.0028 58.8138 46.7703 57.3783 49.5361 55.9438C53.9658 53.6463 58.3909 51.3511 62.8429 49.0431C59.4866 47.2918 56.1501 45.5516 52.8198 43.8147L52.8013 43.805C48.9415 41.7919 45.0901 39.7831 41.2258 37.7665V60.2538Z" fill="#FF0000"/>
<path fill-rule="evenodd" clip-rule="evenodd" d="M0 100V0H100V100H0ZM75.4592 72.4554C79.0198 72.0578 81.9777 69.3878 82.8112 65.772C83.9965 60.624 84 54.9999 84 49.6976V49.5583C84.0001 44.297 84.0002 38.7287 82.8243 33.6259C81.9915 30.0066 79.0338 27.3401 75.4724 26.9427C67.0412 26.0004 58.5067 25.9969 50.0106 26.0004C41.5136 25.9967 32.9763 26.0004 24.5443 26.9427C20.9873 27.3401 18.0286 30.0066 17.1994 33.6259C16.014 38.7738 16 44.3954 16 49.6976C16 54.9999 16 60.624 17.1864 65.772C18.0156 69.3878 20.9733 72.058 24.5348 72.4554C32.9659 73.3951 41.4996 73.4014 49.9965 73.3951C58.497 73.4014 67.0306 73.3951 75.4592 72.4554Z" fill="#FF0000"/>
</svg>
